# xmcd
#
# Track frame offsets: 
#        150
#        17227
#        27842
#        48495
#        63081
#        74175
#        87104
#        112945
#        146415
#        168792
#        182706
#        192152
#        209715
#        220624
#        247324
#        256435
#
# Disc length: 3689 seconds
#
# Revision: 2
# Processed by: cddbd v1.5.2PL0 Copyright (c) Steve Scherf et al.
# Submitted via: ExactAudioCopy v0.99pb5
#
DISCID=eb0e6710
DTITLE=Various Artist - From Latin To Jazz Dance Volume 5
DYEAR=2001
DGENRE=Latin Jazz
TTITLE0=Candido - Perdido
TTITLE1=Julian 'Cannonball' Adderley - Minha saudade
TTITLE2=Gabor Szabo - El Toro
TTITLE3=Mose Allison - Parchman farm
TTITLE4=Little Willie John - Fever
TTITLE5=Wild Bill Davis - Cabato
TTITLE6=Buck Clarke Sound - Night In Tunisia
TTITLE7=Willis Jackson - Nuther'n Like Thuther'n
TTITLE8=Eddie Harris - Lolita Marie
TTITLE9=Mongo Santamaria - Yeh! Yeh!
TTITLE10=Willie Bobo - Chickadee
TTITLE11=Cipo' And His Authentic Rhythm Group - Implorar
TTITLE12=Cal Tjader - Soul Sauce
TTITLE13=Larry Young - Talking about J.C.
TTITLE14=King Curtis - Tequila
TTITLE15=Red Holloway Featuring The Brother Jack McDuff Quartet - Shou
TTITLE15=t Brother
EXTD=YEAR: 2001
EXTT0=
EXTT1=
EXTT2=
EXTT3=
EXTT4=
EXTT5=
EXTT6=
EXTT7=
EXTT8=
EXTT9=
EXTT10=
EXTT11=
EXTT12=
EXTT13=
EXTT14=
EXTT15=
PLAYORDER=
